<?xml version="1.0" encoding="utf-8"?>
<!-- Generator: Adobe Illustrator 21.0.0, SVG Export Plug-In . SVG Version: 6.00 Build 0)  -->
<svg version="1.1" id="Capa_1" xmlns="http://www.w3.org/2000/svg" xmlns:xlink="http://www.w3.org/1999/xlink" x="0px" y="0px"
	 viewBox="0 0 512 512" style="enable-background:new 0 0 512 512;" xml:space="preserve">
<style type="text/css">
	.st0{fill:#AF0029;}
</style>
<g transform="translate(0.000000,512.000000) scale(0.100000,-0.100000)">
	<path class="st0" d="M2265,5109c-487-60-917-239-1310-547c-104-82-350-334-431-442C257,3764,90,3374,23,2950c-26-164-26-616,0-780
		c82-519,319-998,680-1376c394-412,874-667,1441-766c174-30,543-37,727-13c1188,149,2110,1084,2239,2272c16,145,8,533-14,667
		c-184,1134-1088,2011-2216,2151C2745,5121,2387,5124,2265,5109z M2381,3565c102-35,169-129,169-238c0-32-7-74-15-95
		c-10-23-85-107-200-222c-102-102-185-189-185-193s334-7,743-7h742l50-24c92-42,145-125,145-226c0-96-49-178-134-223l-41-22l-752-3
		c-414-1-753-6-753-9c0-4,83-91,185-193c115-115,190-199,200-222c8-21,15-63,15-95c0-112-70-207-174-238c-63-19-91-19-152,1
		c-44,15-93,61-472,438c-277,276-429,435-442,462c-27,55-27,153,0,208c13,27,166,188,437,459c359,358,425,420,468,437
		C2276,3583,2322,3585,2381,3565z"/>
</g>
</svg>
