<?xml version="1.0" encoding="utf-8"?>
<!-- Generator: Adobe Illustrator 21.0.0, SVG Export Plug-In . SVG Version: 6.00 Build 0)  -->
<svg version="1.1" id="Capa_1" xmlns="http://www.w3.org/2000/svg" xmlns:xlink="http://www.w3.org/1999/xlink" x="0px" y="0px"
	 viewBox="0 0 512 512" style="enable-background:new 0 0 512 512;" xml:space="preserve">
<style type="text/css">
	.st0{fill:#AF0029;}
</style>
<g transform="translate(0.000000,512.000000) scale(0.100000,-0.100000)">
	<path class="st0" d="M2230,5104C1108,4961,207,4083,24,2954c-22-134-30-522-14-667C118,1287,799,442,1752,126
		C2047,28,2276-4,2619,3c322,6,548,47,818,146c880,324,1513,1096,1660,2021c26,164,26,616,0,780c-67,424-234,814-501,1170
		c-81,108-327,360-431,442c-399,312-826,489-1325,548C2723,5124,2357,5121,2230,5104z M2902,3560c48-18,97-63,475-442
		c287-288,427-435,438-460c22-53,20-152-5-202c-13-27-165-186-442-462c-379-377-428-423-472-438c-61-20-89-20-152-1
		c-104,31-174,126-174,238c0,32,7,74,15,95c10,23,85,107,200,222c102,102,185,189,185,193c0,3-339,8-752,9l-753,3l-41,22
		c-85,45-134,127-134,223c0,101,53,184,145,226l50,24h743c408,0,742,3,742,7s-83,91-185,193c-115,115-190,199-200,222
		c-38,92-5,223,71,286C2730,3579,2813,3594,2902,3560z"/>
</g>
</svg>
